<svg width="42" height="42" viewBox="0 0 42 42" fill="none" xmlns="http://www.w3.org/2000/svg">
<path fill-rule="evenodd" clip-rule="evenodd" d="M35.847 35.847C31.878 39.816 26.607 42 21 42C15.393 42 10.122 39.816 6.153 35.847C2.184 31.878 0 26.607 0 21C0 15.393 2.184 10.122 6.153 6.153C10.1115 2.184 15.393 0 21 0C26.607 0 31.8885 2.184 35.847 6.153C39.816 10.122 42 15.393 42 21C42 26.607 39.816 31.878 35.847 35.847ZM34.86 7.14C31.1535 3.4335 26.2395 1.3965 21 1.3965C15.7605 1.3965 10.8465 3.4335 7.14 7.14C3.4335 10.8465 1.3965 15.7605 1.3965 21C1.3965 26.2395 3.4335 31.1535 7.14 34.86C10.8465 38.5665 15.7605 40.6035 21 40.6035C26.2395 40.6035 31.1535 38.5665 34.86 34.86C38.5665 31.164 40.6035 26.2395 40.6035 21C40.6035 15.7605 38.556 10.8465 34.86 7.14ZM30.7965 21.7035H21.693V30.807C21.693 31.1955 21.378 31.5105 20.9895 31.5105C20.601 31.5105 20.286 31.1955 20.286 30.807V21.7035H11.1825C10.794 21.7035 10.479 21.3885 10.479 21C10.479 20.6115 10.794 20.2965 11.1825 20.2965H20.286V11.193C20.286 10.8045 20.601 10.4895 20.9895 10.4895C21.378 10.4895 21.693 10.8045 21.693 11.193V20.2965H30.7965C31.185 20.2965 31.5 20.6115 31.5 21C31.5 21.3885 31.185 21.7035 30.7965 21.7035Z" fill="#1B1B1B"/>
</svg>
