<svg width="24" height="24" viewBox="0 0 24 24" fill="none" xmlns="http://www.w3.org/2000/svg">
<path d="M12.0107 0.00012207L12.0001 0.000652054L11.9895 0.00012207C5.36849 0.00012207 0.000137083 5.37257 0.000137083 12.0004C0.000137083 18.6271 5.36849 24.0001 11.9895 24.0001H12.0001H12.0107C18.6318 24.0001 24.0001 18.6271 24.0001 12.0004C24.0007 5.37257 18.6323 0.00012207 12.0107 0.00012207ZM12.0107 20.5648L12.0001 20.5643L11.9895 20.5648C10.9058 20.5648 10.0271 19.6858 10.0271 18.6006C10.0271 17.5165 10.9058 16.6375 11.9895 16.6375H12.0001H12.0107C13.0939 16.6375 13.9737 17.5165 13.9737 18.6006C13.9737 19.6853 13.0955 20.5648 12.0107 20.5648ZM14.8249 5.59735C14.6968 7.55728 13.8016 13.3862 13.8016 13.3862C13.8016 14.3691 12.997 15.1653 12.015 15.1653C12.0097 15.1653 12.0044 15.1653 11.9996 15.1653C11.9948 15.1653 11.989 15.1653 11.9842 15.1653C11.0027 15.1653 10.1982 14.368 10.1982 13.3862C10.1982 13.3862 9.30352 7.55728 9.17533 5.59735C9.11177 4.61606 9.86286 2.79396 11.9848 2.79396C11.9901 2.79396 11.9954 2.79449 12.0001 2.79449C12.0049 2.79449 12.0102 2.79396 12.0155 2.79396C14.1369 2.79396 14.889 4.61606 14.8249 5.59735Z" fill="#86BCFF"/>
</svg>
